HIERARCHY
ROOT Hips
{
  OFFSET 29.8043 98.5072 -14.5193
  CHANNELS 6 Xposition Yposition Zposition Zrotation Xrotation Yrotation
  JOINT spine
  {
    OFFSET 0 8.30104 0.477351
    CHANNELS 3 Zrotation Xrotation Yrotation
    JOINT spine1
    {
      OFFSET 0 10.4565 0
      CHANNELS 3 Zrotation Xrotation Yrotation
      JOINT spine2
      {
        OFFSET 0 10.0192 0
        CHANNELS 3 Zrotation Xrotation Yrotation
        JOINT Neck
        {
          OFFSET 0 25.7235 1.22641
          CHANNELS 3 Zrotation Xrotation Yrotation
          JOINT Head
          {
            OFFSET 0 7.77175 0
            CHANNELS 3 Zrotation Xrotation Yrotation
            End Site
            {
              OFFSET 0 18.812 -6.20394
            }
          }
        }
        JOINT RightShoulder
        {
          OFFSET -4.2188 10.82 -0.587439
          CHANNELS 3 Zrotation Xrotation Yrotation
          JOINT RightArm
          {
            OFFSET 0 14.1914 0
            CHANNELS 3 Zrotation Xrotation Yrotation
            JOINT RightArmRoll
            {
              OFFSET 0 7.16408 0
              CHANNELS 3 Zrotation Xrotation Yrotation
              JOINT RightForeArm
              {
                OFFSET 0 20.8665 0
                CHANNELS 3 Zrotation Xrotation Yrotation
                JOINT RightForeArmRoll
                {
                  OFFSET 0 8.03921 0
                  CHANNELS 3 Zrotation Xrotation Yrotation
                  JOINT RightHand
                  {
                    OFFSET 0 16.133 0
                    CHANNELS 3 Zrotation Xrotation Yrotation
                    End Site
                    {
                      OFFSET 0 0 0
                    }
                  }
                }
              }
            }
          }
        }
        JOINT LeftShoulder
        {
          OFFSET 4.2188 10.82 -0.587439
          CHANNELS 3 Zrotation Xrotation Yrotation
          JOINT LeftArm
          {
            OFFSET 0 14.1914 0
            CHANNELS 3 Zrotation Xrotation Yrotation
            JOINT LeftArmRoll
            {
              OFFSET 0 7.16409 0
              CHANNELS 3 Zrotation Xrotation Yrotation
              JOINT LeftForeArm
              {
                OFFSET 0 20.8665 0
                CHANNELS 3 Zrotation Xrotation Yrotation
                JOINT LeftForeArmRoll
                {
                  OFFSET 0 8.03921 0
                  CHANNELS 3 Zrotation Xrotation Yrotation
                  JOINT LeftHand
                  {
                    OFFSET 0 16.133 0
                    CHANNELS 3 Zrotation Xrotation Yrotation
                    End Site
                    {
                      OFFSET 0 0 0
                    }
                  }
                }
              }
            }
          }
        }
      }
    }
  }
  JOINT RightUpLeg
  {
    OFFSET -7.35773 -1.34921 -1.13182
    CHANNELS 3 Zrotation Xrotation Yrotation
    JOINT RightUpLegRoll
    {
      OFFSET 0 18.9168 0
      CHANNELS 3 Zrotation Xrotation Yrotation
      JOINT RightLeg
      {
        OFFSET 0 -23.4256 0
        CHANNELS 3 Zrotation Xrotation Yrotation
        JOINT RightLegRoll
        {
          OFFSET 0 23.5023 0
          CHANNELS 3 Zrotation Xrotation Yrotation
          JOINT RightFoot
          {
            OFFSET 0 19.5617 0
            CHANNELS 3 Zrotation Xrotation Yrotation
            JOINT RightToeBase
            {
              OFFSET 0 16.3526 0
              CHANNELS 3 Zrotation Xrotation Yrotation
              End Site
              {
                OFFSET 0.00693125 7.91944 -0.912837
              }
            }
          }
        }
      }
    }
  }
  JOINT LeftUpLeg
  {
    OFFSET 7.35773 -1.34921 -1.13182
    CHANNELS 3 Zrotation Xrotation Yrotation
    JOINT LeftUpLegRoll
    {
      OFFSET 0 18.9169 0
      CHANNELS 3 Zrotation Xrotation Yrotation
      JOINT LeftLeg
      {
        OFFSET 0 23.4255 0
        CHANNELS 3 Zrotation Xrotation Yrotation
        JOINT LeftLegRoll
        {
          OFFSET 0 23.7195 0
          CHANNELS 3 Zrotation Xrotation Yrotation
          JOINT LeftFoot
          {
            OFFSET 0 19.3444 0
            CHANNELS 3 Zrotation Xrotation Yrotation
            JOINT LeftToeBase
            {
              OFFSET 0 16.3526 0
              CHANNELS 3 Zrotation Xrotation Yrotation
              End Site
              {
                OFFSET -0.0310629 7.91944 -0.912837
              }
            }
          }
        }
      }
    }
  }
}
MOTION
Frames: 12
Frame Time: 0.00208333
31.8092 108.932 -11.5673 2.1268 -3.04265 2.66652 -0.0818328 -1.19156 0.411331 -0.15915 1.61916 0.831395 -0.169254 3.26416 0.83457 3.5171 17.7721 -2.34326 -6.74818 -12.7637 -2.6816 56.1428 -7.38579 -4.48345 63.6858 27.0178 43.299 2.04968e-005 -2.58426e-006 -5.72509e-007 -4.82435 55.8855 5.45538 -8.55126e-006 7.49252e-006 -3.00279 8.02903 -4.95145 0.697649 -52.8675 -4.82136 2.57492 -66.8074 26.1776 -39.119 -3.27399e-006 -1.11029e-006 -1.08128e-006 2.0335 45.7244 -0.439603 5.15968e-006 -4.37175e-007 2.99999 -8.02898 -4.95145 -0.697674 166.998 3.23348 6.82332 -180 7.01485e-015 178.679 176.598 17.1296 179.581 -4.1166e-006 -2.10886e-006 0.226728 -17.7067 66.7666 18.5698 8.13649 25.2327 -3.48774 -171.791 7.28177 -1.798 4.54188e-006 -4.6773e-006 -1.26172 -2.29091 -18.7209 0.521135 4.82388e-006 -4.96994e-006 -0.240116 17.6381 66.524 -18.3855 -8.13649 25.2327 3.48775 
31.7996 109.026 -11.5366 2.09447 -3.01543 2.66757 -0.078191 -1.19251 0.413459 -0.151836 1.61727 0.83525 -0.161981 3.26227 0.838304 3.57811 17.7146 -2.37646 -6.78899 -12.7368 -2.70445 56.317 -7.3776 -4.48514 64.1032 26.7712 43.0904 2.04968e-005 -2.58426e-006 -5.72509e-007 -4.64894 55.3762 5.27136 -8.55126e-006 7.49252e-006 -3.00279 8.02903 -4.95145 0.697649 -52.9172 -4.83019 2.58474 -67.2696 26.0146 -38.8576 -3.27399e-006 -1.11029e-006 -1.08128e-006 1.96925 45.4791 -0.395553 5.15968e-006 -4.37175e-007 2.99999 -8.02898 -4.95145 -0.697674 167.226 3.29277 6.74863 -180 7.01487e-015 178.688 176.502 17.1389 179.599 -4.1166e-006 -2.10886e-006 0.229438 -17.7439 66.8199 18.6095 8.13649 25.2327 -3.48774 -171.945 7.3281 -1.75186 4.54188e-006 -4.6773e-006 -1.25841 -2.36762 -18.7463 0.507917 4.82388e-006 -4.96994e-006 -0.243134 17.6506 66.5453 -18.4009 -8.13649 25.2327 3.48775 
31.7741 109.079 -11.5469 2.06343 -2.99228 2.66599 -0.0743049 -1.19306 0.415231 -0.144041 1.61621 0.838368 -0.154217 3.26121 0.841293 3.63237 17.6727 -2.40803 -6.83155 -12.7247 -2.72861 56.4848 -7.36526 -4.48376 64.5211 26.5259 42.8845 2.04968e-005 -2.58426e-006 -5.72509e-007 -4.47774 54.8741 5.09353 -8.55126e-006 7.49252e-006 -3.00279 8.02903 -4.95145 0.697649 -52.9713 -4.83874 2.59461 -67.7356 25.8415 -38.5833 -3.27399e-006 -1.11029e-006 -1.08128e-006 1.89489 45.2041 -0.346171 5.15968e-006 -4.37175e-007 2.99999 -8.02898 -4.95145 -0.697674 167.453 3.35182 6.66756 -180 7.01489e-015 178.697 176.417 17.1551 179.615 -4.1166e-006 -2.10886e-006 0.231973 -17.7807 66.8729 18.6493 8.13649 25.2327 -3.48774 -172.097 7.3651 -1.70503 4.54188e-006 -4.6773e-006 -1.25511 -2.44175 -18.7687 0.494904 4.82388e-006 -4.96994e-006 -0.245915 17.6616 66.5652 -18.4153 -8.13649 25.2327 3.48775 
31.8215 109.153 -11.6045 2.03416 -2.97382 2.66146 -0.0701759 -1.1931 0.416554 -0.135768 1.61616 0.840562 -0.145964 3.26116 0.84335 3.67823 17.6487 -2.43742 -6.87535 -12.7295 -2.75398 56.6454 -7.34782 -4.47862 64.9403 26.2815 42.6814 2.04968e-005 -2.58426e-006 -5.72509e-007 -4.3106 54.3808 4.92189 -8.55126e-006 7.49252e-006 -3.00279 8.02903 -4.95145 0.697649 -53.0313 -4.84672 2.6044 -68.2052 25.6559 -38.2954 -3.27399e-006 -1.11029e-006 -1.08128e-006 1.80975 44.8946 -0.291081 5.15968e-006 -4.37175e-007 2.99999 -8.02898 -4.95145 -0.697674 167.68 3.41072 6.57981 -180 7.01492e-015 178.705 176.345 17.1794 179.629 -4.1166e-006 -2.10886e-006 0.234342 -17.8171 66.9255 18.6889 8.13649 25.2327 -3.48774 -172.249 7.39132 -1.65697 4.54188e-006 -4.6773e-006 -1.25178 -2.5128 -18.7872 0.482134 4.82388e-006 -4.96994e-006 -0.248421 17.671 66.5836 -18.4287 -8.13649 25.2327 3.48775 
31.8016 109.22 -11.5906 2.00532 -2.95987 2.6538 -0.0655565 -1.19272 0.417647 -0.12652 1.61694 0.842243 -0.136728 3.26194 0.844877 3.71987 17.6442 -2.46689 -6.92655 -12.7545 -2.78301 56.7963 -7.32708 -4.47085 65.364 26.0398 42.4787 2.04968e-005 -2.58426e-006 -5.72509e-007 -4.14589 53.8963 4.75479 -8.55126e-006 7.49252e-006 -3.00279 8.02903 -4.95145 0.697649 -53.0957 -4.85466 2.61439 -68.6793 25.4603 -37.9873 -3.27399e-006 -1.11029e-006 -1.08128e-006 1.71122 44.549 -0.228505 5.15968e-006 -4.37175e-007 2.99999 -8.02898 -4.95145 -0.697674 167.911 3.4691 6.4818 -180 7.01494e-015 178.713 176.287 17.2102 179.64 -4.1166e-006 -2.10886e-006 0.236433 -17.8542 66.9791 18.7293 8.13649 25.2327 -3.48774 -172.399 7.40657 -1.60908 4.54188e-006 -4.6773e-006 -1.24851 -2.58178 -18.8005 0.469503 4.82388e-006 -4.96994e-006 -0.250658 17.6784 66.5997 -18.4403 -8.13649 25.2327 3.48775 
31.7984 109.295 -11.5854 1.97539 -2.94955 2.64326 -0.0602638 -1.19211 0.418779 -0.115927 1.6182 0.843928 -0.126147 3.2632 0.846385 3.76227 17.6583 -2.49878 -6.99037 -12.7993 -2.8176 56.9365 -7.30547 -4.46207 65.7938 25.8026 42.2747 2.04968e-005 -2.58426e-006 -5.72509e-007 -3.98213 53.4187 4.59057 -8.55126e-006 7.49252e-006 -3.00279 8.02903 -4.95145 0.697649 -53.1616 -4.86326 2.62494 -69.1585 25.2585 -37.6551 -3.27399e-006 -1.11029e-006 -1.08128e-006 1.59854 44.1715 -0.15785 5.15968e-006 -4.37175e-007 2.99999 -8.02898 -4.95145 -0.697674 168.147 3.52652 6.37125 -180 7.01496e-015 178.722 176.243 17.2446 179.649 -4.1166e-006 -2.10886e-006 0.238148 -17.893 67.0347 18.7714 8.13649 25.2327 -3.48774 -172.546 7.41235 -1.56302 4.54188e-006 -4.6773e-006 -1.24537 -2.64998 -18.8085 0.456893 4.82388e-006 -4.96994e-006 -0.252673 17.6834 66.6131 -18.4498 -8.13649 25.2327 3.48775 
31.7932 109.385 -11.5978 1.94453 -2.94248 2.63015 -0.0543956 -1.1913 0.41993 -0.104184 1.61988 0.845589 -0.114414 3.26488 0.847851 3.80504 17.6887 -2.5326 -7.06478 -12.8612 -2.85685 57.0676 -7.28293 -4.45233 66.2281 25.5695 42.0701 2.04968e-005 -2.58426e-006 -5.72509e-007 -3.81946 52.9471 4.42925 -8.55126e-006 7.49252e-006 -3.00279 8.02903 -4.95145 0.697649 -53.2286 -4.87254 2.63603 -69.6415 25.0506 -37.3024 -3.27399e-006 -1.11029e-006 -1.08128e-006 1.47386 43.7664 -0.0805211 5.15968e-006 -4.37175e-007 2.99999 -8.02898 -4.95145 -0.697674 168.389 3.58306 6.24982 -180 7.01498e-015 178.73 176.212 17.2823 179.656 -4.1166e-006 -2.10886e-006 0.239526 -17.9333 67.092 18.815 8.13649 25.2327 -3.48774 -172.689 7.40982 -1.51863 4.54188e-006 -4.6773e-006 -1.24237 -2.71735 -18.8124 0.44432 4.82388e-006 -4.96994e-006 -0.254492 17.6865 66.6242 -18.4576 -8.13649 25.2327 3.48775 
31.78 109.444 -11.5811 1.91292 -2.93829 2.61476 -0.0480502 -1.19031 0.421082 -0.0914883 1.62191 0.847201 -0.101727 3.2669 0.849252 3.84776 17.7331 -2.56788 -7.14778 -12.9374 -2.89987 57.1911 -7.25943 -4.44169 66.665 25.3403 41.8656 2.04968e-005 -2.58426e-006 -5.72509e-007 -3.65801 52.4803 4.27088 -8.55126e-006 7.49252e-006 -3.00279 8.02903 -4.95145 0.697649 -53.2963 -4.88252 2.64762 -70.1276 24.8368 -36.9324 -3.27399e-006 -1.11029e-006 -1.08128e-006 1.33925 43.3376 0.00212006 5.15968e-006 -4.37175e-007 2.99999 -8.02898 -4.95145 -0.697674 168.636 3.63879 6.11916 -180 7.01501e-015 178.738 176.191 17.323 179.66 -4.1166e-006 -2.10886e-006 0.240604 -17.9748 67.1505 18.8597 8.13649 25.2327 -3.48774 -172.83 7.4001 -1.47576 4.54188e-006 -4.6773e-006 -1.23949 -2.78383 -18.8133 0.431798 4.82388e-006 -4.96994e-006 -0.256139 17.6879 66.6333 -18.4639 -8.13649 25.2327 3.48775 
31.7959 109.493 -11.5838 1.88074 -2.93659 2.59742 -0.0413255 -1.18917 0.422217 -0.0780351 1.62423 0.848736 -0.0882817 3.26922 0.850563 3.89003 17.7893 -2.60411 -7.23734 -13.0251 -2.94576 57.3085 -7.23494 -4.4302 67.1028 25.1145 41.6619 2.04968e-005 -2.58426e-006 -5.72509e-007 -3.49794 52.0171 4.11552 -8.55126e-006 7.49252e-006 -3.00279 8.02903 -4.95145 0.697649 -53.3642 -4.8932 2.65971 -70.6156 24.6172 -36.5486 -3.27399e-006 -1.11029e-006 -1.08128e-006 1.19674 42.8895 0.0887635 5.15968e-006 -4.37175e-007 2.99999 -8.02898 -4.95145 -0.697674 168.886 3.69381 5.98091 -180 7.01503e-015 178.745 176.18 17.3665 179.664 -4.1166e-006 -2.10886e-006 0.24142 -18.017 67.2097 18.9051 8.13649 25.2327 -3.48774 -172.968 7.38435 -1.43425 4.54188e-006 -4.6773e-006 -1.23672 -2.84938 -18.8123 0.419344 4.82388e-006 -4.96994e-006 -0.257638 17.688 66.641 -18.4691 -8.13649 25.2327 3.48775 
31.7853 109.557 -11.5539 1.84817 -2.93701 2.57842 -0.0343196 -1.18792 0.423315 -0.0640209 1.62677 0.850167 -0.0742733 3.27177 0.851762 3.93144 17.855 -2.64082 -7.33143 -13.1214 -2.99363 57.4213 -7.20941 -4.41792 67.5398 24.8919 41.4598 2.04968e-005 -2.58426e-006 -5.72509e-007 -3.33943 51.5566 3.96324 -8.55126e-006 7.49252e-006 -3.00279 8.02903 -4.95145 0.697649 -53.4319 -4.90459 2.67226 -71.1048 24.3922 -36.1544 -3.27399e-006 -1.11029e-006 -1.08128e-006 1.04824 42.426 0.178155 5.15968e-006 -4.37175e-007 2.99999 -8.02898 -4.95145 -0.697674 169.138 3.74817 5.83674 -180 7.01505e-015 178.753 176.176 17.4123 179.666 -4.1166e-006 -2.10886e-006 0.24201 -18.0596 67.2691 18.9509 8.13649 25.2327 -3.48774 -173.104 7.3637 -1.39395 4.54188e-006 -4.6773e-006 -1.23406 -2.91394 -18.8105 0.406973 4.82388e-006 -4.96994e-006 -0.259014 17.6871 66.6475 -18.4733 -8.13649 25.2327 3.48775 
31.7605 109.567 -11.5652 1.81538 -2.93918 2.55808 -0.0271305 -1.18659 0.424358 -0.0496416 1.62949 0.851468 -0.059898 3.27449 0.852823 3.97155 17.928 -2.67751 -7.428 -13.2236 -3.04256 57.5311 -7.18281 -4.40491 67.9742 24.6722 41.2599 2.04968e-005 -2.58426e-006 -5.72509e-007 -3.18267 51.0976 3.81416 -8.55126e-006 7.49252e-006 -3.00279 8.02903 -4.95145 0.697649 -53.4989 -4.91672 2.68525 -71.5945 24.1623 -35.7532 -3.27399e-006 -1.11029e-006 -1.08128e-006 0.895634 41.9513 0.2691 5.15968e-006 -4.37175e-007 2.99999 -8.02898 -4.95145 -0.697674 169.392 3.80196 5.6883 -180 7.01507e-015 178.761 176.178 17.4603 179.667 -4.1166e-006 -2.10886e-006 0.242414 -18.1023 67.3284 18.9968 8.13649 25.2327 -3.48774 -173.238 7.3393 -1.35471 4.54188e-006 -4.6773e-006 -1.23149 -2.97747 -18.8089 0.394697 4.82388e-006 -4.96994e-006 -0.260292 17.6855 66.6533 -18.4771 -8.13649 25.2327 3.48775 
31.7316 109.624 -11.5468 1.78255 -2.9427 2.5367 -0.0198564 -1.18521 0.425327 -0.0350934 1.6323 0.852612 -0.0453516 3.2773 0.853725 4.00994 18.0062 -2.71369 -7.52498 -13.3289 -3.09165 57.6394 -7.15509 -4.39123 68.4043 24.455 41.0631 2.04968e-005 -2.58426e-006 -5.72509e-007 -3.02788 50.6389 3.66837 -8.55126e-006 7.49252e-006 -3.00279 8.02903 -4.95145 0.697649 -53.5647 -4.92958 2.69865 -72.0838 23.9278 -35.3482 -3.27399e-006 -1.11029e-006 -1.08128e-006 0.740679 41.4696 0.360462 5.15968e-006 -4.37175e-007 2.99999 -8.02898 -4.95145 -0.697674 169.646 3.85525 5.53723 -180 7.01509e-015 178.768 176.184 17.51 179.667 -4.1166e-006 -2.10886e-006 0.242667 -18.1447 67.387 19.0425 8.13649 25.2327 -3.48774 -173.369 7.31228 -1.31636 4.54188e-006 -4.6773e-006 -1.229 -3.03993 -18.8087 0.382532 4.82388e-006 -4.96994e-006 -0.261497 17.6836 66.6587 -18.4805 -8.13649 25.2327 3.48775 
